<?xml version="1.0" encoding="UTF-8" standalone="no"?>
<!DOCTYPE svg PUBLIC "-//W3C//DTD SVG 1.1//EN" "http://www.w3.org/Graphics/SVG/1.1/DTD/svg11.dtd">
<svg version="1.1" xmlns="http://www.w3.org/2000/svg" xmlns:xlink="http://www.w3.org/1999/xlink" preserveAspectRatio="xMidYMid meet" viewBox="213.39999999999998 -1 215.2000000000001 516" width="211.2" height="512"><defs><path d="M320.48 130.01L320.72 130.03L320.96 130.05L321.2 130.07L321.44 130.11L321.68 130.15L321.92 130.19L322.16 130.24L322.4 130.3L322.64 130.36L322.88 130.43L323.12 130.51L323.36 130.59L323.6 130.67L323.84 130.77L324.08 130.87L324.32 130.97L324.56 131.08L324.8 131.2L325.33 131.4L326.17 131.76L327.31 132.28L328.74 132.97L330.44 133.81L332.39 134.8L334.57 135.96L336.96 137.27L339.55 138.73L342.33 140.35L345.26 142.12L348.34 144.04L351.56 146.12L354.88 148.34L358.3 150.72L361.79 153.24L365.35 155.91L368.95 158.73L372.57 161.69L376.2 164.8L379.82 168.05L383.42 171.45L386.97 174.98L390.46 178.66L393.88 182.48L397.2 186.44L400.4 190.54L403.48 194.77L406.41 199.14L409.18 203.65L411.76 208.29L414.14 213.07L416.31 217.98L418.25 223.02L419.93 228.19L421.35 233.5L422.48 238.93L423.32 244.49L423.83 250.18L424 256L423.83 261.82L423.31 267.51L422.48 273.07L421.35 278.5L419.93 283.81L418.25 288.98L416.31 294.02L414.14 298.93L411.76 303.71L409.17 308.35L406.41 312.86L403.48 317.23L400.4 321.46L397.2 325.56L393.88 329.52L390.46 333.34L386.97 337.02L383.42 340.55L379.82 343.95L376.2 347.2L372.57 350.31L368.95 353.27L365.35 356.09L361.79 358.76L358.3 361.28L354.88 363.66L351.56 365.88L348.34 367.96L345.26 369.88L342.33 371.65L339.55 373.27L336.96 374.73L334.57 376.04L332.39 377.2L330.44 378.19L328.74 379.03L327.31 379.72L326.17 380.24L325.33 380.6L324.8 380.8L324.68 380.92L324.56 381.03L324.44 381.13L324.32 381.23L324.2 381.33L324.08 381.42L323.96 381.5L323.84 381.58L323.72 381.66L323.6 381.72L323.48 381.79L323.36 381.85L323.24 381.91L323.12 381.96L323 382.01L322.88 382.05L322.76 382.1L322.64 382.13L322.52 382.17L322.4 382.2L322.28 382.23L322.16 382.25L322.04 382.28L321.92 382.3L321.8 382.32L321.68 382.33L321.56 382.35L321.44 382.36L321.32 382.37L321.2 382.38L321.08 382.38L320.96 382.39L320.84 382.39L320.72 382.39L320.6 382.4L320.48 382.4L320.36 382.4L320.24 382.4L320.12 382.4L320 382.4L319.88 382.4L319.76 382.4L319.64 382.4L319.52 382.4L319.4 382.4L319.28 382.39L319.16 382.39L319.04 382.39L318.92 382.38L318.8 382.37L318.68 382.37L318.56 382.36L318.44 382.35L318.32 382.33L318.2 382.32L318.08 382.3L317.96 382.28L317.84 382.25L317.72 382.23L317.6 382.2L317.48 382.17L317.36 382.13L317.24 382.1L317.12 382.05L317 382.01L316.88 381.96L316.76 381.91L316.64 381.85L316.52 381.79L316.4 381.73L316.28 381.66L316.16 381.58L316.04 381.5L315.92 381.42L315.8 381.33L315.68 381.23L315.56 381.13L315.44 381.03L315.32 380.92L315.2 380.8L314.67 380.6L313.83 380.24L312.69 379.72L311.26 379.03L309.56 378.19L307.61 377.2L305.43 376.04L303.04 374.73L300.45 373.27L297.67 371.65L294.74 369.88L291.66 367.96L288.44 365.88L285.12 363.66L281.7 361.28L278.21 358.76L274.65 356.09L271.06 353.27L267.43 350.31L263.8 347.2L260.18 343.95L256.58 340.55L253.03 337.02L249.54 333.34L246.12 329.52L242.8 325.56L239.6 321.46L236.52 317.23L233.59 312.86L230.83 308.35L228.24 303.71L225.86 298.93L223.69 294.02L221.75 288.98L220.07 283.81L218.65 278.5L217.52 273.07L216.69 267.51L216.17 261.82L216 256L216.17 250.18L216.68 244.49L217.52 238.93L218.65 233.5L220.07 228.19L221.75 223.02L223.69 217.98L225.86 213.07L228.24 208.29L230.83 203.65L233.59 199.14L236.52 194.77L239.6 190.54L242.8 186.44L246.12 182.48L249.54 178.66L253.03 174.98L256.58 171.45L260.18 168.05L263.8 164.8L267.43 161.69L271.05 158.73L274.65 155.91L278.21 153.24L281.7 150.72L285.12 148.34L288.44 146.12L291.66 144.04L294.74 142.12L297.67 140.35L300.45 138.73L303.04 137.27L305.43 135.96L307.61 134.8L309.56 133.81L311.26 132.97L312.69 132.28L313.83 131.76L314.67 131.4L315.2 131.2L315.44 131.08L315.68 130.97L315.92 130.87L316.16 130.77L316.4 130.67L316.64 130.59L316.88 130.51L317.12 130.43L317.36 130.36L317.6 130.3L317.84 130.24L318.08 130.19L318.32 130.15L318.56 130.11L318.8 130.07L319.04 130.05L319.28 130.03L319.52 130.01L319.76 130L320 130L320.24 130L320.48 130.01ZM317.04 156.84L315.33 157.81L313.48 158.89L311.51 160.06L309.42 161.32L307.22 162.69L304.92 164.15L302.54 165.7L300.08 167.35L297.55 169.09L294.96 170.92L292.32 172.85L289.65 174.86L286.95 176.97L284.24 179.16L281.51 181.44L278.79 183.81L276.08 186.26L273.4 188.8L270.75 191.42L268.14 194.13L265.58 196.91L263.09 199.78L260.67 202.73L258.34 205.76L256.09 208.87L253.95 212.05L251.93 215.31L250.03 218.65L248.26 222.06L246.63 225.55L245.16 229.11L243.85 232.74L242.72 236.44L241.76 240.22L241.01 244.06L240.45 247.97L240.12 251.95L240 256L240.12 260.05L240.45 264.03L241.01 267.94L241.76 271.78L242.72 275.56L243.85 279.26L245.16 282.89L246.63 286.45L248.26 289.94L250.02 293.35L251.93 296.69L253.95 299.95L256.09 303.13L258.34 306.24L260.67 309.27L263.09 312.22L265.58 315.09L268.14 317.87L270.75 320.58L273.4 323.2L276.08 325.74L278.79 328.19L281.51 330.56L284.24 332.84L286.95 335.03L289.65 337.14L292.32 339.15L294.96 341.08L297.55 342.91L300.08 344.65L302.54 346.3L304.92 347.85L307.22 349.31L309.42 350.68L311.51 351.94L313.48 353.11L315.33 354.19L317.04 355.16L318.6 356.03L320 356.8L321.4 356.03L322.96 355.16L324.67 354.19L326.52 353.11L328.49 351.94L330.58 350.68L332.78 349.31L335.08 347.85L337.46 346.3L339.93 344.65L342.45 342.91L345.04 341.08L347.68 339.15L350.35 337.14L353.05 335.03L355.76 332.84L358.49 330.56L361.21 328.19L363.92 325.74L366.6 323.2L369.25 320.58L371.86 317.87L374.42 315.09L376.91 312.22L379.33 309.27L381.66 306.24L383.91 303.13L386.05 299.95L388.07 296.69L389.98 293.35L391.74 289.94L393.37 286.45L394.84 282.89L396.15 279.26L397.28 275.56L398.24 271.78L398.99 267.94L399.55 264.03L399.88 260.05L400 256L399.88 251.95L399.55 247.97L398.99 244.06L398.24 240.22L397.28 236.44L396.15 232.74L394.84 229.11L393.37 225.55L391.74 222.06L389.98 218.65L388.07 215.31L386.05 212.05L383.91 208.87L381.66 205.76L379.33 202.73L376.91 199.78L374.42 196.91L371.86 194.13L369.25 191.42L366.6 188.8L363.92 186.26L361.21 183.81L358.49 181.44L355.76 179.16L353.05 176.97L350.35 174.86L347.68 172.85L345.04 170.92L342.45 169.09L339.93 167.35L337.46 165.7L335.08 164.15L332.78 162.69L330.58 161.32L328.49 160.06L326.52 158.89L324.67 157.81L322.96 156.84L321.4 155.97L320 155.2L318.6 155.97L317.04 156.84Z" id="a3KG4Lq0cL"></path><path d="M315.2 152C310.4 150.4 216 104 216 11.2C216 4.8 220.8 0 228.8 0C236.8 0 240 4.8 240 12.8C240 78.4 300.8 118.4 320 128C339.2 116.8 400 78.4 400 12.8C400 4.8 404.8 0 412.8 0C420.8 0 425.6 4.8 425.6 12.8C425.6 104 331.2 150.4 326.4 153.6C323.2 153.6 321.6 153.6 320 153.6C318.4 153.6 316.8 153.6 315.2 152Z" id="b1Do2wYwf"></path><path d="M400 499.2C400 433.6 339.2 393.6 320 384C300.8 395.2 240 433.6 240 499.2C240 505.6 235.2 512 227.2 512C219.2 512 214.4 507.2 214.4 499.2C214.4 408 308.8 361.6 313.6 358.4C316.8 356.8 320 356.8 323.2 358.4C328 360 422.4 406.4 422.4 499.2C424 507.2 419.2 512 412.8 512C406.4 512 400 507.2 400 499.2Z" id="eYRWfLnEZ"></path><path d="M236.8 67.2C230.4 67.2 224 62.4 224 54.4C224 46.4 228.8 41.6 236.8 41.6C253.6 41.6 388 41.6 404.8 41.6C409.6 43.2 416 48 416 54.4C416 60.8 409.6 67.2 403.2 67.2C369.92 67.2 253.44 67.2 236.8 67.2Z" id="btyMWxv0p"></path><path d="M264 110.4C257.6 110.4 251.2 105.6 251.2 97.6C251.2 89.6 256 84.8 264 84.8C275.2 84.8 364.8 84.8 376 84.8C382.4 84.8 388.8 89.6 388.8 97.6C388.8 105.6 382.4 110.4 376 110.4C353.6 110.4 275.2 110.4 264 110.4Z" id="c7vI0qpvUP"></path><path d="M236.8 468.8C230.4 468.8 224 464 224 456C224 448 228.8 443.2 236.8 443.2C253.6 443.2 388 443.2 404.8 443.2C411.2 443.2 417.6 448 417.6 456C417.6 464 409.6 468.8 403.2 468.8C369.92 468.8 253.44 468.8 236.8 468.8Z" id="aombXEtQr"></path><path d="M264 425.6C257.6 425.6 251.2 420.8 251.2 412.8C251.2 404.8 256 400 264 400C275.2 400 364.8 400 376 400C382.4 400 388.8 404.8 388.8 412.8C388.8 420.8 382.4 425.6 376 425.6C353.6 425.6 275.2 425.6 264 425.6Z" id="a2V59yC6d1"></path><path d="M251.2 211.2C244.8 211.2 238.4 206.4 238.4 198.4C238.4 190.4 243.2 185.6 251.2 185.6C265.12 185.6 376.48 185.6 390.4 185.6C396.8 185.6 403.2 190.4 403.2 198.4C403.2 206.4 396.8 211.2 390.4 211.2C362.56 211.2 265.12 211.2 251.2 211.2Z" id="dwA7iBEZX"></path><path d="M228.8 268.8C222.4 268.8 216 264 216 256C216 248 220.8 243.2 228.8 243.2C247.2 243.2 394.4 243.2 412.8 243.2C419.2 243.2 425.6 248 425.6 256C425.6 264 419.2 268.8 412.8 268.8C376 268.8 247.2 268.8 228.8 268.8Z" id="b2u9wUyLeY"></path><path d="M249.6 324.8C243.2 324.8 236.8 320 236.8 312C236.8 304 241.6 299.2 249.6 299.2C263.84 299.2 377.76 299.2 392 299.2C398.4 299.2 404.8 304 404.8 312C404.8 320 398.4 324.8 392 324.8C363.52 324.8 263.84 324.8 249.6 324.8Z" id="cICCfKGGu"></path></defs><g><g><use xlink:href="#a3KG4Lq0cL" opacity="1" fill="#ffffff" fill-opacity="1"></use><g><use xlink:href="#a3KG4Lq0cL" opacity="1" fill-opacity="0" stroke="#000000" stroke-width="1" stroke-opacity="0"></use></g></g><g><use xlink:href="#b1Do2wYwf" opacity="1" fill="#ffffff" fill-opacity="1"></use><g><use xlink:href="#b1Do2wYwf" opacity="1" fill-opacity="0" stroke="#000000" stroke-width="1" stroke-opacity="0"></use></g></g><g><use xlink:href="#eYRWfLnEZ" opacity="1" fill="#ffffff" fill-opacity="1"></use><g><use xlink:href="#eYRWfLnEZ" opacity="1" fill-opacity="0" stroke="#000000" stroke-width="1" stroke-opacity="0"></use></g></g><g><use xlink:href="#btyMWxv0p" opacity="1" fill="#ffffff" fill-opacity="1"></use><g><use xlink:href="#btyMWxv0p" opacity="1" fill-opacity="0" stroke="#000000" stroke-width="1" stroke-opacity="0"></use></g></g><g><use xlink:href="#c7vI0qpvUP" opacity="1" fill="#ffffff" fill-opacity="1"></use><g><use xlink:href="#c7vI0qpvUP" opacity="1" fill-opacity="0" stroke="#000000" stroke-width="1" stroke-opacity="0"></use></g></g><g><use xlink:href="#aombXEtQr" opacity="1" fill="#ffffff" fill-opacity="1"></use><g><use xlink:href="#aombXEtQr" opacity="1" fill-opacity="0" stroke="#000000" stroke-width="1" stroke-opacity="0"></use></g></g><g><use xlink:href="#a2V59yC6d1" opacity="1" fill="#ffffff" fill-opacity="1"></use><g><use xlink:href="#a2V59yC6d1" opacity="1" fill-opacity="0" stroke="#000000" stroke-width="1" stroke-opacity="0"></use></g></g><g><use xlink:href="#dwA7iBEZX" opacity="1" fill="#ffffff" fill-opacity="1"></use><g><use xlink:href="#dwA7iBEZX" opacity="1" fill-opacity="0" stroke="#000000" stroke-width="1" stroke-opacity="0"></use></g></g><g><use xlink:href="#b2u9wUyLeY" opacity="1" fill="#ffffff" fill-opacity="1"></use><g><use xlink:href="#b2u9wUyLeY" opacity="1" fill-opacity="0" stroke="#000000" stroke-width="1" stroke-opacity="0"></use></g></g><g><use xlink:href="#cICCfKGGu" opacity="1" fill="#ffffff" fill-opacity="1"></use><g><use xlink:href="#cICCfKGGu" opacity="1" fill-opacity="0" stroke="#000000" stroke-width="1" stroke-opacity="0"></use></g></g></g></svg>