<svg xmlns="http://www.w3.org/2000/svg" xmlns:xlink="http://www.w3.org/1999/xlink" version="1.1" x="0px" y="0px" viewBox="0 0 32 40" style="enable-background:new 0 0 32 32;" xml:space="preserve"><g><g><path d="M16,23.9c-0.1,0-0.2,0-0.3-0.1c-0.3-0.1-6.2-2.9-6.2-7.8s5.9-7.7,6.2-7.8c0.2-0.1,0.4-0.1,0.6,0c0.3,0.1,6.2,2.9,6.2,7.8    s-5.9,7.7-6.2,7.8C16.2,23.9,16.1,23.9,16,23.9z M16,9.7c-1.1,0.6-5,2.9-5,6.3s3.9,5.7,5,6.3c1.1-0.6,5-2.9,5-6.3    S17.1,10.3,16,9.7z"/></g><g><g><path d="M16,9.6c-0.1,0-0.2,0-0.3-0.1c-0.3-0.1-6.2-3-6.2-8.8C9.5,0.3,9.8,0,10.3,0S11,0.3,11,0.8c0,4.1,3.8,6.6,5,7.2     c1.2-0.7,5-3.1,5-7.2C21,0.3,21.3,0,21.8,0s0.8,0.3,0.8,0.8c0,5.7-5.9,8.6-6.2,8.8C16.2,9.6,16.1,9.6,16,9.6z"/></g></g><g><g><path d="M21.8,32c-0.4,0-0.8-0.3-0.8-0.8c0-4.1-3.8-6.6-5-7.2c-1.2,0.7-5,3.1-5,7.2c0,0.4-0.3,0.8-0.8,0.8s-0.8-0.3-0.8-0.8     c0-5.7,5.9-8.6,6.2-8.8c0.2-0.1,0.4-0.1,0.6,0c0.3,0.1,6.2,3,6.2,8.8C22.5,31.7,22.2,32,21.8,32z"/></g></g><g><g><path d="M21.2,4.2H10.8c-0.4,0-0.8-0.3-0.8-0.8s0.3-0.8,0.8-0.8h10.5C21.6,2.7,22,3,22,3.4S21.6,4.2,21.2,4.2z"/></g><g><path d="M19.5,6.9h-7c-0.4,0-0.8-0.3-0.8-0.8s0.3-0.8,0.8-0.8h7c0.4,0,0.8,0.3,0.8,0.8S19.9,6.9,19.5,6.9z"/></g></g><g><g><path d="M21.2,29.3H10.8c-0.4,0-0.8-0.3-0.8-0.8s0.3-0.8,0.8-0.8h10.5c0.4,0,0.8,0.3,0.8,0.8S21.6,29.3,21.2,29.3z"/></g><g><path d="M19.5,26.6h-7c-0.4,0-0.8-0.3-0.8-0.8s0.3-0.8,0.8-0.8h7c0.4,0,0.8,0.3,0.8,0.8S19.9,26.6,19.5,26.6z"/></g></g><g><g><path d="M20.4,13.2h-8.7c-0.4,0-0.8-0.3-0.8-0.8s0.3-0.8,0.8-0.8h8.7c0.4,0,0.8,0.3,0.8,0.8S20.8,13.2,20.4,13.2z"/></g><g><path d="M21.8,16.8H10.3c-0.4,0-0.8-0.3-0.8-0.8s0.3-0.8,0.8-0.8h11.5c0.4,0,0.8,0.3,0.8,0.8S22.2,16.8,21.8,16.8z"/></g><g><path d="M20.5,20.3h-8.9c-0.4,0-0.8-0.3-0.8-0.8s0.3-0.8,0.8-0.8h8.9c0.4,0,0.8,0.3,0.8,0.8S20.9,20.3,20.5,20.3z"/></g></g></g><text x="0" y="47" fill="#000000" font-size="5px" font-weight="bold" font-family="'Helvetica Neue', Helvetica, Arial-Unicode, Arial, Sans-serif">Created by Royyan Wijaya</text><text x="0" y="52" fill="#000000" font-size="5px" font-weight="bold" font-family="'Helvetica Neue', Helvetica, Arial-Unicode, Arial, Sans-serif">from the Noun Project</text></svg>